<?xml version="1.0" encoding="utf-8"?>
<!-- Generator: Adobe Illustrator 18.1.1, SVG Export Plug-In . SVG Version: 6.00 Build 0)  -->
<svg version="1.1" xmlns="http://www.w3.org/2000/svg" xmlns:xlink="http://www.w3.org/1999/xlink" x="0px" y="0px"
	 viewBox="0 0 20 19" enable-background="new 0 0 20 19" xml:space="preserve">
<g id="CloseSearch">
</g>
<g id="TreeViewNodeDown">
</g>
<g id="TreeViewNodeRight">
</g>
<g id="TreeViewSyncOff">
</g>
<g id="TreeViewSyncOn">
</g>
<g id="SearchSelector">
	<g>
		<g>
			<path fill="#5E5E5E" d="M12.2,13.8l-2.9-2.9C9.7,10.2,10,9.4,10,8.5C10,6,8,4,5.5,4S1,6,1,8.5S3,13,5.5,13c0.9,0,1.7-0.3,2.4-0.7
				l2.9,2.9c0.4,0.4,1,0.4,1.4,0C12.6,14.9,12.6,14.2,12.2,13.8z M2,8.5C2,6.6,3.6,5,5.5,5S9,6.6,9,8.5S7.4,12,5.5,12S2,10.4,2,8.5z
				"/>
		</g>
	</g>
	<polygon fill="#656565" points="16,7 13.5,10 11,7 	"/>
	<polygon fill="#B9B9B9" points="11,7 13.5,10 16,7 15,7 13.5,8.8 12,7 	"/>
</g>
<g id="PathDivider">
</g>
</svg>
